<?xml version="1.0" standalone="no"?>
<!DOCTYPE svg PUBLIC "-//W3C//DTD SVG 20010904//EN"
 "http://www.w3.org/TR/2001/REC-SVG-20010904/DTD/svg10.dtd">
<svg version="1.0" xmlns="http://www.w3.org/2000/svg"
 width="128.000000pt" height="128.000000pt" viewBox="0 0 128.000000 128.000000"
 preserveAspectRatio="xMidYMid meet">

<g transform="translate(0.000000,128.000000) scale(0.100000,-0.100000)"
fill="#000000" stroke="none">
<path d="M948 902 c-27 -33 -44 -70 -35 -79 3 -2 8 4 11 15 9 29 38 37 53 16
12 -16 13 -16 12 7 -1 13 -4 35 -8 48 l-6 24 -27 -31z"/>
<path d="M514 890 c-84 -13 -151 -39 -211 -84 -102 -75 -150 -171 -138 -278 6
-46 4 -58 -10 -65 -23 -13 -16 -57 10 -61 18 -2 18 -2 3 8 -30 18 -21 46 13
42 3 -1 4 32 1 71 -6 96 19 156 94 227 100 94 235 136 409 126 64 -4 80 -3 55
4 -55 14 -170 19 -226 10z"/>
<path d="M1048 819 c-10 -5 -18 -19 -18 -31 0 -16 3 -18 14 -9 11 9 30 52 23
51 -1 0 -10 -5 -19 -11z"/>
<path d="M1050 719 c0 -19 10 -32 43 -52 31 -20 35 -41 10 -52 -10 -5 -56 -14
-103 -21 l-85 -13 100 5 c110 5 138 19 133 63 -2 20 -10 27 -30 29 -15 2 -37
15 -48 29 -11 14 -20 20 -20 12z"/>
<path d="M806 578 c-15 -52 -17 -82 -11 -130 4 -35 8 -75 9 -90 1 -28 10 -36
20 -19 4 5 -1 40 -10 77 -15 68 -13 113 7 166 6 14 9 35 7 45 -2 10 -12 -12
-22 -49z"/>
<path d="M666 610 c4 -14 17 -39 30 -55 13 -17 30 -46 38 -65 15 -34 15 -34
16 -8 0 16 -12 41 -29 60 -15 18 -36 47 -45 63 -15 26 -16 27 -10 5z"/>
<path d="M543 502 c-40 -15 -57 -32 -32 -32 15 0 78 31 85 41 7 12 -2 10 -53
-9z"/>
<path d="M448 494 c12 -8 31 -33 42 -54 20 -39 38 -49 128 -69 66 -14 49 2
-24 23 -56 16 -69 24 -90 57 -13 21 -32 43 -43 49 -30 15 -38 12 -13 -6z"/>
<path d="M405 378 c-11 -7 -40 -18 -65 -24 -31 -9 -37 -13 -20 -13 14 -1 46 7
72 16 45 16 48 16 67 -1 16 -15 26 -16 63 -8 l43 10 -46 1 c-28 1 -52 7 -59
16 -15 18 -28 18 -55 3z"/>
</g>
</svg>
